<?xml version="1.0" standalone="no"?>
<!DOCTYPE svg PUBLIC "-//W3C//DTD SVG 20010904//EN"
 "http://www.w3.org/TR/2001/REC-SVG-20010904/DTD/svg10.dtd">
<svg version="1.0" xmlns="http://www.w3.org/2000/svg"
 width="268.000000pt" height="217.000000pt" viewBox="0 0 268.000000 217.000000"
 preserveAspectRatio="xMidYMid meet">

<g transform="translate(0.000000,217.000000) scale(0.100000,-0.100000)"
fill="#000000" stroke="none">
<path d="M1360 1776 l0 -95 -57 20 c-31 10 -57 19 -58 19 -5 0 -146 -182 -143
-184 2 -1 60 -19 131 -41 l127 -38 0 -117 0 -118 -204 63 -205 62 -62 -81
c-34 -44 -66 -86 -70 -92 -6 -7 84 -38 266 -94 l275 -83 0 -118 0 -117 -57 17
c-557 171 -634 193 -646 183 -7 -6 -41 -47 -75 -90 l-61 -79 367 -112 c202
-62 391 -120 420 -129 l52 -16 0 -117 0 -118 -27 9 c-55 18 -951 290 -956 290
-12 0 -138 -173 -130 -180 9 -9 1092 -340 1112 -340 8 0 109 29 225 64 703
213 882 269 889 276 5 4 -179 250 -409 546 -230 297 -472 609 -538 694 -66 85
-130 168 -143 183 l-23 29 0 -96z"/>
</g>
</svg>
